<?xml version="1.0" encoding="UTF-8" standalone="no"?>
<!DOCTYPE svg PUBLIC "-//W3C//DTD SVG 1.1//EN" "http://www.w3.org/Graphics/SVG/1.1/DTD/svg11.dtd">
<!-- Created with Vectornator (http://vectornator.io/) -->
<svg height="512.0px" stroke-miterlimit="10" style="fill-rule:nonzero;clip-rule:evenodd;stroke-linecap:round;stroke-linejoin:round;" version="1.1" viewBox="0 0 512 512" width="512.0px" xml:space="preserve" xmlns="http://www.w3.org/2000/svg" xmlns:xlink="http://www.w3.org/1999/xlink">
<defs>
<path d="M191.542 95.911C191.542 76.0312 220.403 59.9155 256.004 59.9155C291.605 59.9155 320.466 76.0312 320.466 95.911C320.466 115.791 291.605 131.906 256.004 131.906C220.403 131.906 191.542 115.791 191.542 95.911Z" id="Fill"/>
<filter color-interpolation-filters="sRGB" filterUnits="userSpaceOnUse" height="207.707" id="Filter" width="207.708" x="147.754" y="91.6943">
<feDropShadow dx="-4.39618" dy="8.58453" flood-color="#ffffff" flood-opacity="1" in="SourceGraphic" result="Shadow" stdDeviation="33.8168"/>
</filter>
</defs>
<g id="Слой-1">
<path d="M4.51496 256C4.51496 117.109 117.109 4.51496 256 4.51496C394.891 4.51496 507.485 117.109 507.485 256C507.485 394.891 394.891 507.485 256 507.485C117.109 507.485 4.51496 394.891 4.51496 256Z" fill="#3d4048" fill-rule="nonzero" opacity="1" stroke="none"/>
<path d="M191.534 90.3702L191.534 391.617C191.534 425.012 218.607 452.085 252.002 452.085L259.998 452.085C293.393 452.085 320.466 425.012 320.466 391.617L320.466 90.3702C320.466 110.691 291.601 127.207 256 127.207C220.399 127.207 191.534 110.692 191.534 90.3702Z" fill="#fdfbef" fill-rule="nonzero" opacity="1" stroke="none"/>
<path d="M229.768 95.911C229.768 87.3404 241.514 80.3926 256.004 80.3926C270.494 80.3926 282.24 87.3404 282.24 95.911C282.24 104.482 270.494 111.429 256.004 111.429C241.514 111.429 229.768 104.482 229.768 95.911Z" fill="none" opacity="1" stroke="#fdfbef" stroke-linecap="butt" stroke-linejoin="round" stroke-width="5.28048"/>
<g opacity="1">
<mask height="71.991" id="StrokeMask" maskUnits="userSpaceOnUse" width="128.924" x="191.542" y="59.9155">
<rect fill="#000000" height="71.991" stroke="none" width="128.924" x="191.542" y="59.9155"/>
<use fill="#ffffff" fill-rule="evenodd" stroke="none" xlink:href="#Fill"/>
</mask>
<use fill="none" mask="url(#StrokeMask)" stroke="#fdfbef" stroke-linecap="butt" stroke-linejoin="round" stroke-width="10.561" xlink:href="#Fill"/>
</g>
<path d="M236.692 186.963C236.692 176.298 245.338 167.652 256.004 167.652C266.67 167.652 275.316 176.298 275.316 186.963C275.316 197.629 266.67 206.275 256.004 206.275C245.338 206.275 236.692 197.629 236.692 186.963Z" fill="#82c2be" fill-rule="nonzero" filter="url(#Filter)" stroke="none"/>
<path d="M251.604 221.697C251.604 219.501 253.574 217.72 256.004 217.72C258.434 217.72 260.404 219.501 260.404 221.697C260.404 223.893 258.434 225.673 256.004 225.673C253.574 225.673 251.604 223.893 251.604 221.697Z" fill="#b3d6da" fill-rule="nonzero" opacity="1" stroke="none"/>
<path d="M152.813 186.963L152.813 309.579M172.174 225.684L172.174 270.858M191.534 238.591L191.534 257.951M133.453 212.777L133.453 283.765M94.7324 225.684L94.7324 270.858M114.093 238.591L114.093 257.951M75.3721 193.417L75.3721 303.125M36.6514 238.591L36.6514 257.951M56.0118 219.231L56.0118 277.312" fill="none" opacity="1" stroke="#fdfbf0" stroke-linecap="round" stroke-linejoin="round" stroke-width="12.2615"/>
<path d="M436.628 186.963L436.628 309.579M455.988 225.684L455.988 270.858M475.349 238.591L475.349 257.951M417.268 212.777L417.268 283.765M378.547 225.684L378.547 270.858M397.907 238.591L397.907 257.951M359.187 193.417L359.187 303.125M320.466 238.591L320.466 257.951M339.826 219.231L339.826 277.312" fill="none" opacity="1" stroke="#fdfbf0" stroke-linecap="round" stroke-linejoin="round" stroke-width="12.2615"/>
</g>
</svg>
